<svg width="300" height="300" viewBox="0 0 300 300" fill="none" xmlns="http://www.w3.org/2000/svg">
<rect width="300" height="300" fill="#232323"/>
<path d="M59 64.0001H97.4413V236.986H59V64.0001Z" fill="white"/>
<path d="M203.155 64H241.596V169.714H203.155V64Z" fill="#F2AA3D"/>
<path d="M97.4412 102.442L97.4413 64.0001L135.883 64.0002V102.442H97.4412Z" fill="#F2AA3D"/>
<path d="M145.493 102.442L145.493 64.0002L203.155 64L203.155 102.442H145.493Z" fill="#F2AA3D"/>
<path d="M172.402 169.714L172.402 131.273H203.155V169.714L172.402 169.714Z" fill="#F2AA3D"/>
<path d="M97.4412 169.714V131.273H162.792V169.714L97.4412 169.714Z" fill="white"/>
<path d="M97.4413 236.986L97.4412 198.545H187.778V236.987L97.4413 236.986Z" fill="white"/>
<path d="M189.7 198.545H193.545V202.389H189.7V198.545Z" fill="white" fill-opacity="0.9"/>
<path d="M195.467 198.545H199.311V202.389H195.467V198.545Z" fill="white" fill-opacity="0.8"/>
<path d="M203.155 198.545H206.999V202.389H203.155V198.545Z" fill="white" fill-opacity="0.6"/>
<path d="M212.765 198.545H216.609V202.389H212.765V198.545Z" fill="white" fill-opacity="0.4"/>
<path d="M224.297 198.545H228.142V202.389H224.297V198.545Z" fill="white" fill-opacity="0.3"/>
<path d="M237.752 198.545H241.596V202.389H237.752V198.545Z" fill="white" fill-opacity="0.2"/>
<path d="M189.7 204.311H193.544V208.155H189.7V204.311Z" fill="white" fill-opacity="0.9"/>
<path d="M195.467 204.311H199.311V208.155H195.467V204.311Z" fill="white" fill-opacity="0.8"/>
<path d="M203.155 204.311H206.999V208.155H203.155V204.311Z" fill="white" fill-opacity="0.6"/>
<path d="M212.765 204.311H216.609V208.155H212.765V204.311Z" fill="white" fill-opacity="0.4"/>
<path d="M224.297 204.311H228.142V208.155H224.297V204.311Z" fill="white" fill-opacity="0.3"/>
<path d="M237.752 204.311H241.596V208.155H237.752V204.311Z" fill="white" fill-opacity="0.2"/>
<path d="M189.7 210.078H193.544V213.922H189.7V210.078Z" fill="white" fill-opacity="0.9"/>
<path d="M195.467 210.078H199.311V213.922H195.467V210.078Z" fill="white" fill-opacity="0.8"/>
<path d="M203.155 210.078H206.999V213.922H203.155V210.078Z" fill="white" fill-opacity="0.6"/>
<path d="M212.765 210.078H216.609V213.922H212.765V210.078Z" fill="white" fill-opacity="0.4"/>
<path d="M224.297 210.078H228.142V213.922H224.297V210.078Z" fill="white" fill-opacity="0.3"/>
<path d="M189.7 215.844H193.544V219.688H189.7V215.844Z" fill="white" fill-opacity="0.9"/>
<path d="M195.467 215.844H199.311V219.688H195.467V215.844Z" fill="white" fill-opacity="0.8"/>
<path d="M203.155 215.844H206.999V219.688H203.155V215.844Z" fill="white" fill-opacity="0.6"/>
<path d="M212.765 215.844H216.609V219.688H212.765V215.844Z" fill="white" fill-opacity="0.4"/>
<path d="M189.7 221.61H193.544V225.454H189.7V221.61Z" fill="white" fill-opacity="0.9"/>
<path d="M195.467 221.61H199.311V225.454H195.467V221.61Z" fill="white" fill-opacity="0.8"/>
<path d="M203.155 221.61H206.999V225.454H203.155V221.61Z" fill="white" fill-opacity="0.6"/>
<path d="M189.7 227.376H193.544V231.22H189.7V227.376Z" fill="white" fill-opacity="0.9"/>
<path d="M195.467 227.376H199.311V231.22H195.467V227.376Z" fill="white" fill-opacity="0.8"/>
<path d="M189.7 233.142H193.544V236.986H189.7V233.142Z" fill="white" fill-opacity="0.9"/>
<path d="M157.025 137.039H160.869V140.883H157.025V137.039Z" fill="#F2AA3D"/>
<path d="M157.025 142.805H160.869V146.649H157.025V142.805Z" fill="#F2AA3D"/>
<path d="M149.337 142.805H153.181V146.649H149.337V142.805Z" fill="#F2AA3D" fill-opacity="0.5"/>
<path d="M157.025 148.571H160.869V152.415H157.025V148.571Z" fill="#F2AA3D"/>
<path d="M149.337 148.571H153.181V152.415H149.337V148.571Z" fill="#F2AA3D" fill-opacity="0.5"/>
<path d="M157.025 154.338H160.869V158.182H157.025V154.338Z" fill="#F2AA3D"/>
<path d="M149.337 154.338H153.181V158.182H149.337V154.338Z" fill="#F2AA3D" fill-opacity="0.5"/>
<path d="M157.025 160.104H160.869V163.948H157.025V160.104Z" fill="#F2AA3D"/>
</svg>
